<?xml version="1.0" encoding="UTF-8" standalone="no"?>
<!DOCTYPE svg PUBLIC "-//W3C//DTD SVG 1.1//EN" "http://www.w3.org/Graphics/SVG/1.1/DTD/svg11.dtd">
<svg width="100%" height="100%" viewBox="0 0 1832 2611" version="1.1" xmlns="http://www.w3.org/2000/svg" xmlns:xlink="http://www.w3.org/1999/xlink" xml:space="preserve" xmlns:serif="http://www.serif.com/" style="fill-rule:evenodd;clip-rule:evenodd;stroke-linejoin:round;stroke-miterlimit:2;">
    <g id="Mesa-de-trabajo1" serif:id="Mesa de trabajo1" transform="matrix(1,0,0,1,-25.8396,-25.2872)">
        <rect x="25.84" y="25.287" width="1831.63" height="2610.37" style="fill:none;"/>
        <g transform="matrix(2.24199,0,0,2.24199,784.9,1375.11)">
            <path d="M0,-39.543L-0.312,-404.728L89.798,-404.728L118.155,-360.268L119.405,-90.178L0,-39.543ZM115.832,335.311L2.828,362.196L3.781,60.984L116.264,12.078L115.832,335.311ZM208.74,-16.091L380.773,-84.856L368.485,-518.334L-218.508,-570.573L-240.773,-573.783L-218.508,479.777L-121.148,534.24L380.773,466.439L374.156,20.735L208.74,-16.091Z" style="fill:rgb(64,63,65);fill-rule:nonzero;"/>
        </g>
    </g>
</svg>
