<?xml version="1.0" encoding="UTF-8" standalone="no"?>
<!DOCTYPE svg PUBLIC "-//W3C//DTD SVG 1.1//EN" "http://www.w3.org/Graphics/SVG/1.1/DTD/svg11.dtd">
<svg width="100%" height="100%" viewBox="0 0 1500 400" version="1.1" xmlns="http://www.w3.org/2000/svg" xmlns:xlink="http://www.w3.org/1999/xlink" xml:space="preserve" xmlns:serif="http://www.serif.com/" style="fill-rule:evenodd;clip-rule:evenodd;stroke-linejoin:round;stroke-miterlimit:2;">
    <g id="Mesa-de-trabajo1" serif:id="Mesa de trabajo1" transform="matrix(1,0,0,1,-23.2457,-37.1805)">
        <rect x="23.246" y="37.181" width="1499.2" height="399.54" style="fill:none;"/>
        <g transform="matrix(1,0,0,1,39.7962,25.9871)">
            <g transform="matrix(4.16667,0,0,4.16667,-340.711,-31352.2)">
                <path d="M117.292,7581.11L104.293,7581.11L104.293,7599.24L117.292,7599.24L117.292,7581.11ZM111.863,7551.03L104.293,7551.03L104.293,7569.65L111.863,7569.65L111.863,7551.03ZM128.797,7610.69L92.788,7610.69L92.788,7539.57L123.368,7539.57L123.368,7569.65L128.797,7574.79L128.797,7610.69Z" style="fill:white;fill-rule:nonzero;"/>
            </g>
            <g transform="matrix(4.16667,0,0,4.16667,315.25,234.932)">
                <path d="M0,-11.555L4.781,-16.336L4.781,-29.832L-8.068,-29.832L-8.068,-11.555L0,-11.555ZM16.286,29.783L4.781,29.783L4.781,4.732L0,-0.049L-8.068,-0.049L-8.068,29.783L-19.573,29.783L-19.573,-41.338L16.286,-41.338L16.286,-11.555L10.559,-5.778L16.286,-0.049L16.286,29.783Z" style="fill:white;fill-rule:nonzero;"/>
            </g>
            <g transform="matrix(4.16667,0,0,4.16667,-340.711,-31352.2)">
                <path d="M207.281,7551.08L194.282,7551.08L194.282,7569.41L207.281,7569.41L207.281,7551.08ZM218.786,7610.69L207.281,7610.69L207.281,7580.86L194.282,7580.86L194.282,7610.69L182.777,7610.69L182.777,7539.57L218.786,7539.57L218.786,7610.69Z" style="fill:white;fill-rule:nonzero;"/>
            </g>
            <g transform="matrix(4.16667,0,0,4.16667,758.064,62.6901)">
                <path d="M0,71.121L-11.505,71.121L-11.505,16.287L-16.286,11.506L-24.354,11.506L-24.354,71.121L-35.859,71.121L-35.859,0L-11.505,0L0,11.506L0,71.121Z" style="fill:white;fill-rule:nonzero;"/>
            </g>
            <g transform="matrix(4.16667,0,0,4.16667,897.913,110.624)">
                <path d="M0,48.113L-0.149,4.783L-4.931,0.002L-12.999,0.002L-12.999,48.113L0,48.113ZM11.505,59.617L-24.354,59.617L-24.504,-11.504L-0.149,-11.504L11.505,0.101L11.505,59.617Z" style="fill:white;fill-rule:nonzero;"/>
            </g>
            <g transform="matrix(4.16667,0,0,4.16667,-340.711,-31352)">
                <rect x="317.835" y="7539.52" width="11.505" height="71.171" style="fill:white;"/>
            </g>
            <g transform="matrix(4.16667,0,0,4.16667,1218.71,62.6901)">
                <path d="M0,71.121L-11.505,71.121L-11.505,16.287L-16.286,11.506L-24.354,11.506L-24.354,71.121L-35.859,71.121L-35.859,0L-11.505,0L0,11.506L0,71.121Z" style="fill:white;fill-rule:nonzero;"/>
            </g>
            <g transform="matrix(4.16667,0,0,4.16667,1406.5,62.6901)">
                <path d="M0,71.121L-36.009,71.121L-36.009,0L0,0L0,22.363L-11.505,22.363L-11.505,11.506L-24.504,11.506L-24.504,59.219L-11.505,59.219L-11.505,48.111L-20.071,48.111L-20.071,36.607L3.287,36.607L3.287,48.111L0,48.111L0,71.121Z" style="fill:white;fill-rule:nonzero;"/>
            </g>
        </g>
    </g>
</svg>
