<?xml version="1.0" encoding="UTF-8" standalone="no"?>
<!DOCTYPE svg PUBLIC "-//W3C//DTD SVG 1.1//EN" "http://www.w3.org/Graphics/SVG/1.1/DTD/svg11.dtd">
<svg width="100%" height="100%" viewBox="0 0 961 481" version="1.1" xmlns="http://www.w3.org/2000/svg" xmlns:xlink="http://www.w3.org/1999/xlink" xml:space="preserve" xmlns:serif="http://www.serif.com/" style="fill-rule:evenodd;clip-rule:evenodd;stroke-linejoin:round;stroke-miterlimit:2;">
    <g id="Mesa-de-trabajo1" serif:id="Mesa de trabajo1" transform="matrix(1,0,0,1,-10.2362,-6.7089)">
        <rect x="10.236" y="6.709" width="960.02" height="480.505" style="fill:none;"/>
        <g transform="matrix(-2.70746,0,0,2.70746,1799.58,-52.3579)">
            <rect x="647.262" y="32.091" width="5.689" height="136.528" style="fill:rgb(35,31,32);"/>
        </g>
        <g transform="matrix(2.70746,0,0,2.70746,303.052,224.255)">
            <path d="M0,-1.674L0,-37.377C0,-37.377 8.515,-37.078 9.86,-33.941C11.204,-30.803 10.723,0.585 10.723,0.585L0,-1.674ZM-31.163,-50.269L-29.744,-39.284L-22.653,-38.109L-22.653,49.233L1.494,43.112L1.508,11.68L9.07,13.247L12.771,48.679L38.869,43.906L34.429,6.145L20.158,3.102L34.429,-6.444L34.429,-44.438L-31.163,-50.907" style="fill:rgb(0,1,4);fill-rule:nonzero;"/>
        </g>
        <g transform="matrix(2.70746,0,0,2.70746,424.584,335.761)">
            <path d="M0,-89.892L19.943,-91.939L20.408,-12.985L30.923,-14.05L31.575,-83.531L57.072,-86.602L57.072,-10.609L49.813,1.488L9.427,2.047L0.122,-4.467L0,-89.892Z" style="fill:rgb(0,1,4);fill-rule:nonzero;"/>
        </g>
        <g transform="matrix(2.70746,0,0,2.70746,659.853,218.987)">
            <path d="M0,-3.631L-0.029,-37.16L8.245,-37.16L10.848,-33.078L10.963,-8.28L0,-3.631ZM10.635,30.786L0.26,33.255L0.347,5.599L10.675,1.109L10.635,30.786ZM19.165,-1.478L34.961,-7.791L33.832,-47.591L-20.062,-52.388L-22.107,-52.682L-20.062,44.05L-11.123,49.051L34.961,42.826L34.353,1.903L19.165,-1.478Z" style="fill:rgb(0,1,4);fill-rule:nonzero;"/>
        </g>
        <g transform="matrix(2.70746,0,0,2.70746,772.142,350.892)">
            <path d="M0,-92.839L21.413,-95.376L25.352,-30.724L28.256,-28.695L40.714,-82.382L62.672,-84.107L55.257,-23.438L40.286,-13.19L37.292,2.537L11.969,-3.01L14.748,-15.422L0.214,-33.831L0,-92.839Z" style="fill:rgb(0,1,4);fill-rule:nonzero;"/>
        </g>
        <g transform="matrix(2.70746,0,0,2.70746,226.52,420.348)">
            <path d="M0,5.489C-0.659,5.976 -1.347,6.219 -2.063,6.219C-2.993,6.219 -3.736,5.89 -4.292,5.231C-4.847,4.572 -5.124,3.727 -5.124,2.696C-5.124,1.6 -4.854,0.737 -4.313,0.107C-3.772,-0.523 -3.022,-0.838 -2.063,-0.838C-1.425,-0.838 -0.78,-0.662 -0.129,-0.312L-0.505,0.698C-0.984,0.433 -1.504,0.301 -2.063,0.301C-2.649,0.301 -3.079,0.489 -3.352,0.864C-3.624,1.241 -3.76,1.851 -3.76,2.696C-3.76,4.286 -3.194,5.081 -2.063,5.081C-1.54,5.081 -0.967,4.887 -0.344,4.501L0,5.489ZM-2.245,8.046C-0.77,8.046 0.49,7.524 1.536,6.483C2.582,5.44 3.104,4.185 3.104,2.718C3.104,1.257 2.582,0.005 1.536,-1.036C0.49,-2.079 -0.77,-2.6 -2.245,-2.6C-3.706,-2.6 -4.958,-2.079 -5.999,-1.036C-7.042,0.005 -7.562,1.257 -7.562,2.718C-7.562,4.193 -7.043,5.45 -6.005,6.488C-4.967,7.526 -3.713,8.046 -2.245,8.046M-2.245,-3.749C-0.455,-3.749 1.076,-3.115 2.347,-1.848C3.618,-0.58 4.254,0.941 4.254,2.718C4.254,4.515 3.618,6.051 2.347,7.326C1.076,8.6 -0.455,9.238 -2.245,9.238C-4.035,9.238 -5.564,8.6 -6.832,7.326C-8.1,6.051 -8.733,4.515 -8.733,2.718C-8.733,0.927 -8.102,-0.598 -6.837,-1.859C-5.573,-3.119 -4.043,-3.749 -2.245,-3.749" style="fill:rgb(35,31,32);fill-rule:nonzero;"/>
        </g>
        <g transform="matrix(2.70746,0,0,2.70746,297.255,440.471)">
            <path d="M0,-2.642C0,-3.516 -0.272,-4.251 -0.816,-4.85C-1.36,-5.448 -1.97,-5.746 -2.643,-5.746C-3.509,-5.746 -4.228,-5.46 -4.796,-4.887C-5.366,-4.314 -5.683,-3.566 -5.747,-2.642L0,-2.642ZM1.826,-1.278L-5.854,-1.278C-5.854,-0.01 -5.487,1.036 -4.753,1.859C-4.02,2.682 -3.119,3.094 -2.052,3.094C-1.035,3.094 0.015,2.912 1.096,2.546L1.386,3.889C0.397,4.334 -0.756,4.555 -2.073,4.555C-3.734,4.555 -5.074,4.022 -6.091,2.955C-7.107,1.887 -7.616,0.448 -7.616,-1.364C-7.616,-3.14 -7.159,-4.556 -6.247,-5.612C-5.333,-6.668 -4.153,-7.197 -2.707,-7.197C-1.418,-7.197 -0.34,-6.706 0.526,-5.725C1.393,-4.744 1.826,-3.437 1.826,-1.804L1.826,-1.278Z" style="fill:rgb(35,31,32);fill-rule:nonzero;"/>
        </g>
        <g transform="matrix(2.70746,0,0,2.70746,332.679,447.745)">
            <path d="M0,-8.014C-0.938,-8.322 -1.822,-8.476 -2.653,-8.476C-3.563,-8.476 -4.282,-8.324 -4.812,-8.019C-5.343,-7.715 -5.607,-7.309 -5.607,-6.8C-5.607,-6.478 -5.485,-6.197 -5.242,-5.956C-4.999,-5.717 -4.512,-5.493 -3.781,-5.285L-2.181,-4.824C-1.443,-4.616 -0.842,-4.367 -0.376,-4.077C0.09,-3.786 0.438,-3.436 0.671,-3.025C0.904,-2.613 1.021,-2.134 1.021,-1.59C1.021,-0.523 0.573,0.32 -0.322,0.94C-1.218,1.559 -2.356,1.869 -3.738,1.869C-5.113,1.869 -6.248,1.661 -7.144,1.246L-6.821,-0.204C-5.883,0.24 -4.877,0.462 -3.803,0.462C-2.872,0.462 -2.114,0.288 -1.53,-0.06C-0.947,-0.407 -0.655,-0.867 -0.655,-1.44C-0.655,-1.827 -0.8,-2.172 -1.091,-2.476C-1.38,-2.781 -2.063,-3.098 -3.137,-3.427C-4.003,-3.692 -4.641,-3.891 -5.049,-4.023C-5.457,-4.156 -5.837,-4.351 -6.187,-4.609C-6.538,-4.867 -6.806,-5.174 -6.987,-5.533C-7.171,-5.891 -7.262,-6.291 -7.262,-6.736C-7.262,-7.702 -6.839,-8.469 -5.994,-9.035C-5.149,-9.6 -4.028,-9.883 -2.632,-9.883C-1.729,-9.883 -0.727,-9.729 0.376,-9.421L0,-8.014Z" style="fill:rgb(35,31,32);fill-rule:nonzero;"/>
        </g>
        <g transform="matrix(2.70746,0,0,2.70746,370.694,415.518)">
            <path d="M0,12.977C-1.124,13.493 -2.23,13.75 -3.319,13.75C-5.317,13.75 -6.316,12.694 -6.316,10.581L-6.316,3.739L-8.465,3.739L-8.465,2.289L-6.316,2.289L-6.316,-0.773L-4.684,-0.773L-4.684,2.289L-0.881,2.289L-0.881,3.739L-4.684,3.739L-4.684,10.141C-4.684,10.822 -4.533,11.349 -4.232,11.726C-3.932,12.101 -3.523,12.29 -3.008,12.29C-2.091,12.29 -1.186,12.085 -0.29,11.677L0,12.977Z" style="fill:rgb(35,31,32);fill-rule:nonzero;"/>
        </g>
        <g transform="matrix(2.70746,0,0,2.70746,404.897,422.443)">
            <path d="M0,10.924L-1.676,10.924L-1.676,9.27C-2.879,10.552 -4.146,11.193 -5.479,11.193C-7.577,11.193 -8.626,9.921 -8.626,7.379L-8.626,-0.269L-6.95,-0.269L-6.95,6.896C-6.95,7.848 -6.8,8.559 -6.499,9.028C-6.198,9.497 -5.689,9.732 -4.974,9.732C-3.949,9.732 -2.851,9.094 -1.676,7.82L-1.676,-0.269L0,-0.269L0,10.924Z" style="fill:rgb(35,31,32);fill-rule:nonzero;"/>
        </g>
        <g transform="matrix(2.70746,0,0,2.70746,429.737,452.02)">
            <path d="M0,-15.426C0.315,-15.426 0.584,-15.313 0.806,-15.088C1.027,-14.862 1.139,-14.592 1.139,-14.277C1.139,-13.947 1.029,-13.671 0.811,-13.449C0.593,-13.228 0.322,-13.116 0,-13.116C-0.294,-13.116 -0.553,-13.233 -0.779,-13.465C-1.004,-13.698 -1.117,-13.969 -1.117,-14.277C-1.117,-14.584 -1.004,-14.853 -0.779,-15.082C-0.553,-15.312 -0.294,-15.426 0,-15.426M0.816,0L-0.859,0L-0.859,-9.743L-4.157,-9.743L-4.157,-11.194L0.816,-11.194L0.816,0Z" style="fill:rgb(35,31,32);fill-rule:nonzero;"/>
        </g>
        <g transform="matrix(2.70746,0,0,2.70746,462.312,424.942)">
            <path d="M0,8.83C1.017,8.83 1.819,8.4 2.406,7.541C2.993,6.682 3.287,5.64 3.287,4.415C3.287,3.126 2.997,2.066 2.417,1.235C1.837,0.404 1.031,-0.011 0,-0.011C-1.038,-0.011 -1.844,0.399 -2.417,1.22C-2.99,2.039 -3.276,3.104 -3.276,4.415C-3.276,5.661 -2.986,6.708 -2.406,7.558C-1.826,8.405 -1.024,8.83 0,8.83M0,-1.461C1.54,-1.461 2.765,-0.924 3.674,0.15C4.583,1.225 5.038,2.639 5.038,4.393C5.038,6.162 4.583,7.588 3.674,8.669C2.765,9.75 1.54,10.291 0,10.291C-1.547,10.291 -2.773,9.752 -3.68,8.675C-4.585,7.597 -5.038,6.17 -5.038,4.393C-5.038,2.632 -4.583,1.216 -3.674,0.145C-2.765,-0.926 -1.54,-1.461 0,-1.461" style="fill:rgb(35,31,32);fill-rule:nonzero;"/>
        </g>
        <g transform="matrix(2.70746,0,0,2.70746,543.633,450.48)">
            <path d="M0,-10.324L-0.677,-8.713C-1.414,-9.035 -2.052,-9.196 -2.589,-9.196C-3.083,-9.196 -3.566,-9.054 -4.039,-8.771C-4.512,-8.489 -4.947,-8.084 -5.344,-7.558C-5.742,-7.031 -5.94,-6.736 -5.94,-6.672L-5.94,0.569L-7.605,0.569L-7.605,-10.625L-5.94,-10.625L-5.94,-8.358C-5.045,-10.049 -3.885,-10.893 -2.46,-10.893C-1.615,-10.893 -0.795,-10.704 0,-10.324" style="fill:rgb(35,31,32);fill-rule:nonzero;"/>
        </g>
        <g transform="matrix(2.70746,0,0,2.70746,573.183,430.757)">
            <path d="M0,4.534L0,2.504C-1.511,2.639 -2.548,2.767 -3.109,2.885C-3.672,3.004 -4.159,3.223 -4.57,3.546C-4.982,3.868 -5.188,4.305 -5.188,4.856C-5.188,5.357 -5.013,5.763 -4.662,6.07C-4.312,6.378 -3.863,6.532 -3.319,6.532C-2.725,6.532 -2.134,6.355 -1.547,6C-0.96,5.646 -0.444,5.157 0,4.534M1.955,7.853L0.29,7.853C0.154,7.402 0.086,6.801 0.086,6.049C-0.866,7.445 -2.163,8.143 -3.803,8.143C-4.634,8.143 -5.365,7.847 -6,7.258C-6.633,6.666 -6.95,5.905 -6.95,4.974C-6.95,4.423 -6.839,3.936 -6.617,3.513C-6.396,3.091 -6.069,2.734 -5.64,2.445C-5.21,2.154 -4.687,1.926 -4.071,1.758C-3.455,1.589 -2.725,1.472 -1.88,1.408L0,1.258L0,0.721C0,-1.198 -0.896,-2.158 -2.686,-2.158C-3.108,-2.158 -3.644,-2.067 -4.291,-1.885C-4.939,-1.701 -5.496,-1.486 -5.962,-1.235L-6.402,-2.438C-4.877,-3.218 -3.459,-3.609 -2.148,-3.609C0.401,-3.609 1.676,-2.259 1.676,0.441L1.676,5.254C1.676,6.227 1.769,7.095 1.955,7.853" style="fill:rgb(35,31,32);fill-rule:nonzero;"/>
        </g>
        <g transform="matrix(2.70746,0,0,2.70746,615.241,410.983)">
            <path d="M0,15.157L-2.202,15.157L-6.95,9.593L-8.046,10.538L-8.046,15.157L-9.722,15.157L-9.722,0L-8.046,0L-8.046,8.69L-2.793,3.964L-0.655,3.964L-5.758,8.54L0,15.157Z" style="fill:rgb(35,31,32);fill-rule:nonzero;"/>
        </g>
        <g transform="matrix(2.70746,0,0,2.70746,637.054,452.02)">
            <path d="M0,-15.426C0.315,-15.426 0.584,-15.313 0.806,-15.088C1.027,-14.862 1.139,-14.592 1.139,-14.277C1.139,-13.947 1.029,-13.671 0.811,-13.449C0.593,-13.228 0.322,-13.116 0,-13.116C-0.294,-13.116 -0.553,-13.233 -0.779,-13.465C-1.004,-13.698 -1.117,-13.969 -1.117,-14.277C-1.117,-14.584 -1.004,-14.853 -0.779,-15.082C-0.553,-15.312 -0.294,-15.426 0,-15.426M0.816,0L-0.859,0L-0.859,-9.743L-4.157,-9.743L-4.157,-11.194L0.816,-11.194L0.816,0Z" style="fill:rgb(35,31,32);fill-rule:nonzero;"/>
        </g>
        <g transform="matrix(2.70746,0,0,2.70746,676.727,421.047)">
            <path d="M0,8.013L0,3.362C-0.802,2.073 -1.769,1.428 -2.9,1.428C-3.824,1.428 -4.555,1.838 -5.092,2.659C-5.629,3.478 -5.897,4.515 -5.897,5.768C-5.897,7.057 -5.645,8.122 -5.141,8.963C-4.635,9.805 -3.942,10.226 -3.062,10.226C-2.639,10.226 -2.213,10.112 -1.783,9.882C-1.354,9.653 -0.949,9.309 -0.569,8.851C-0.189,8.393 0,8.114 0,8.013M1.676,11.44L0,11.44L0,9.828C-0.344,10.38 -0.836,10.834 -1.477,11.193C-2.118,11.551 -2.793,11.73 -3.502,11.73C-4.784,11.73 -5.797,11.159 -6.542,10.016C-7.287,8.874 -7.659,7.426 -7.659,5.671C-7.659,4.032 -7.271,2.672 -6.494,1.594C-5.717,0.517 -4.687,-0.022 -3.405,-0.022C-1.994,-0.022 -0.859,0.551 0,1.697L0,-3.717L1.676,-3.717L1.676,11.44Z" style="fill:rgb(35,31,32);fill-rule:nonzero;"/>
        </g>
        <g transform="matrix(2.70746,0,0,2.70746,715.874,422.443)">
            <path d="M0,10.924L-1.676,10.924L-1.676,9.27C-2.879,10.552 -4.146,11.193 -5.479,11.193C-7.577,11.193 -8.626,9.921 -8.626,7.379L-8.626,-0.269L-6.95,-0.269L-6.95,6.896C-6.95,7.848 -6.8,8.559 -6.499,9.028C-6.198,9.497 -5.689,9.732 -4.974,9.732C-3.949,9.732 -2.851,9.094 -1.676,7.82L-1.676,-0.269L0,-0.269L0,10.924Z" style="fill:rgb(35,31,32);fill-rule:nonzero;"/>
        </g>
        <g transform="matrix(2.70746,0,0,2.70746,745.95,430.757)">
            <path d="M0,4.534L0,2.504C-1.511,2.639 -2.548,2.767 -3.109,2.885C-3.672,3.004 -4.159,3.223 -4.57,3.546C-4.982,3.868 -5.188,4.305 -5.188,4.856C-5.188,5.357 -5.013,5.763 -4.662,6.07C-4.312,6.378 -3.863,6.532 -3.319,6.532C-2.725,6.532 -2.134,6.355 -1.547,6C-0.96,5.646 -0.444,5.157 0,4.534M1.955,7.853L0.29,7.853C0.154,7.402 0.086,6.801 0.086,6.049C-0.866,7.445 -2.163,8.143 -3.803,8.143C-4.634,8.143 -5.365,7.847 -6,7.258C-6.633,6.666 -6.95,5.905 -6.95,4.974C-6.95,4.423 -6.839,3.936 -6.617,3.513C-6.396,3.091 -6.069,2.734 -5.64,2.445C-5.21,2.154 -4.687,1.926 -4.071,1.758C-3.455,1.589 -2.725,1.472 -1.88,1.408L0,1.258L0,0.721C0,-1.198 -0.896,-2.158 -2.686,-2.158C-3.108,-2.158 -3.644,-2.067 -4.291,-1.885C-4.939,-1.701 -5.496,-1.486 -5.962,-1.235L-6.402,-2.438C-4.877,-3.218 -3.459,-3.609 -2.148,-3.609C0.401,-3.609 1.676,-2.259 1.676,0.441L1.676,5.254C1.676,6.227 1.769,7.095 1.955,7.853" style="fill:rgb(35,31,32);fill-rule:nonzero;"/>
        </g>
        <g transform="matrix(2.70746,0,0,2.70746,787.423,420.987)">
            <path d="M0,11.462L-1.676,11.462L-1.676,4.114C-1.676,2.338 -2.005,1.45 -2.664,1.45C-3.001,1.45 -3.371,1.757 -3.775,2.368C-4.181,2.982 -4.383,3.319 -4.383,3.384L-4.383,11.462L-6.048,11.462L-6.048,4.114C-6.048,2.338 -6.381,1.45 -7.047,1.45C-7.376,1.45 -7.743,1.757 -8.148,2.368C-8.553,2.982 -8.755,3.319 -8.755,3.384L-8.755,11.462L-10.431,11.462L-10.431,0.269L-8.819,0.269L-8.819,1.955C-8.504,1.36 -8.13,0.886 -7.697,0.532C-7.264,0.177 -6.832,0 -6.402,0C-5.951,0 -5.547,0.177 -5.188,0.532C-4.83,0.886 -4.583,1.36 -4.447,1.955C-4.132,1.36 -3.756,0.886 -3.319,0.532C-2.883,0.177 -2.453,0 -2.03,0C-0.677,0 0,1.21 0,3.631L0,11.462Z" style="fill:rgb(35,31,32);fill-rule:nonzero;"/>
        </g>
        <g transform="matrix(2.70746,0,0,2.70746,850.974,447.745)">
            <path d="M0,-8.014C-0.938,-8.322 -1.822,-8.476 -2.653,-8.476C-3.563,-8.476 -4.282,-8.324 -4.812,-8.019C-5.343,-7.715 -5.607,-7.309 -5.607,-6.8C-5.607,-6.478 -5.485,-6.197 -5.242,-5.956C-4.999,-5.717 -4.512,-5.493 -3.781,-5.285L-2.181,-4.824C-1.443,-4.616 -0.842,-4.367 -0.376,-4.077C0.09,-3.786 0.438,-3.436 0.671,-3.025C0.904,-2.613 1.021,-2.134 1.021,-1.59C1.021,-0.523 0.573,0.32 -0.322,0.94C-1.218,1.559 -2.356,1.869 -3.738,1.869C-5.113,1.869 -6.248,1.661 -7.144,1.246L-6.821,-0.204C-5.883,0.24 -4.877,0.462 -3.803,0.462C-2.872,0.462 -2.114,0.288 -1.53,-0.06C-0.947,-0.407 -0.655,-0.867 -0.655,-1.44C-0.655,-1.827 -0.8,-2.172 -1.091,-2.476C-1.38,-2.781 -2.063,-3.098 -3.137,-3.427C-4.003,-3.692 -4.641,-3.891 -5.049,-4.023C-5.457,-4.156 -5.837,-4.351 -6.187,-4.609C-6.538,-4.867 -6.806,-5.174 -6.987,-5.533C-7.171,-5.891 -7.262,-6.291 -7.262,-6.736C-7.262,-7.702 -6.839,-8.469 -5.994,-9.035C-5.149,-9.6 -4.028,-9.883 -2.632,-9.883C-1.729,-9.883 -0.727,-9.729 0.376,-9.421L0,-8.014Z" style="fill:rgb(35,31,32);fill-rule:nonzero;"/>
        </g>
        <g transform="matrix(2.70746,0,0,2.70746,869.879,454.84)">
            <path d="M0,-9.12L0,-4.469C0.315,-3.839 0.741,-3.312 1.278,-2.89C1.815,-2.467 2.37,-2.256 2.943,-2.256C3.846,-2.256 4.563,-2.679 5.097,-3.523C5.631,-4.368 5.897,-5.418 5.897,-6.671C5.897,-7.96 5.644,-9.013 5.135,-9.829C4.626,-10.645 3.917,-11.054 3.008,-11.054C1.826,-11.054 0.823,-10.409 0,-9.12M0,-10.785C0.372,-11.301 0.876,-11.716 1.509,-12.031C2.144,-12.347 2.811,-12.504 3.513,-12.504C4.802,-12.504 5.813,-11.972 6.548,-10.909C7.281,-9.845 7.648,-8.461 7.648,-6.757C7.648,-5.038 7.264,-3.607 6.493,-2.466C5.724,-1.323 4.687,-0.752 3.384,-0.752C2.689,-0.752 2.039,-0.926 1.435,-1.272C0.829,-1.62 0.351,-2.08 0,-2.653L0,3.384L-1.676,3.384L-1.676,-12.235L0,-12.235L0,-10.785Z" style="fill:rgb(35,31,32);fill-rule:nonzero;"/>
        </g>
        <g transform="matrix(2.70746,0,0,2.70746,918.714,430.757)">
            <path d="M0,4.534L0,2.504C-1.511,2.639 -2.548,2.767 -3.109,2.885C-3.672,3.004 -4.159,3.223 -4.57,3.546C-4.982,3.868 -5.188,4.305 -5.188,4.856C-5.188,5.357 -5.013,5.763 -4.662,6.07C-4.312,6.378 -3.863,6.532 -3.319,6.532C-2.725,6.532 -2.134,6.355 -1.547,6C-0.96,5.646 -0.444,5.157 0,4.534M1.955,7.853L0.29,7.853C0.154,7.402 0.086,6.801 0.086,6.049C-0.866,7.445 -2.163,8.143 -3.803,8.143C-4.634,8.143 -5.365,7.847 -6,7.258C-6.633,6.666 -6.95,5.905 -6.95,4.974C-6.95,4.423 -6.839,3.936 -6.617,3.513C-6.396,3.091 -6.069,2.734 -5.64,2.445C-5.21,2.154 -4.687,1.926 -4.071,1.758C-3.455,1.589 -2.725,1.472 -1.88,1.408L0,1.258L0,0.721C0,-1.198 -0.896,-2.158 -2.686,-2.158C-3.108,-2.158 -3.644,-2.067 -4.291,-1.885C-4.939,-1.701 -5.496,-1.486 -5.962,-1.235L-6.402,-2.438C-4.877,-3.218 -3.459,-3.609 -2.148,-3.609C0.401,-3.609 1.676,-2.259 1.676,0.441L1.676,5.254C1.676,6.227 1.769,7.095 1.955,7.853" style="fill:rgb(35,31,32);fill-rule:nonzero;"/>
        </g>
        <g transform="matrix(2.70746,0,0,2.70746,945.878,452.805)">
            <path d="M0,-2.75C0.38,-2.75 0.698,-2.621 0.956,-2.363C1.214,-2.105 1.343,-1.787 1.343,-1.407C1.343,-1.021 1.212,-0.689 0.951,-0.413C0.689,-0.138 0.372,0 0,0C-0.365,0 -0.677,-0.138 -0.935,-0.413C-1.192,-0.689 -1.321,-1.021 -1.321,-1.407C-1.321,-1.794 -1.194,-2.114 -0.939,-2.368C-0.686,-2.623 -0.372,-2.75 0,-2.75" style="fill:rgb(35,31,32);fill-rule:nonzero;"/>
        </g>
    </g>
</svg>
