<?xml version="1.0" encoding="UTF-8" standalone="no"?>
<!DOCTYPE svg PUBLIC "-//W3C//DTD SVG 1.1//EN" "http://www.w3.org/Graphics/SVG/1.1/DTD/svg11.dtd">
<svg width="100%" height="100%" viewBox="0 0 1832 2611" version="1.1" xmlns="http://www.w3.org/2000/svg" xmlns:xlink="http://www.w3.org/1999/xlink" xml:space="preserve" xmlns:serif="http://www.serif.com/" style="fill-rule:evenodd;clip-rule:evenodd;stroke-linejoin:round;stroke-miterlimit:2;">
    <g id="Mesa-de-trabajo1" serif:id="Mesa de trabajo1" transform="matrix(1,0,0,1,-25.8396,-25.2872)">
        <rect x="25.84" y="25.287" width="1831.63" height="2610.37" style="fill:none;"/>
        <g transform="matrix(2.64562,0,0,2.64562,830.288,1352.01)">
            <path d="M0,-16.189L0,-361.543C0,-361.543 82.369,-358.654 95.375,-328.307C108.381,-297.96 103.729,5.662 103.729,5.662L0,-16.189ZM-301.44,-486.256L-287.721,-379.994L-219.124,-368.626L-219.124,476.236L14.451,417.034L14.586,112.982L87.732,128.146L123.538,470.884L375.981,424.712L333.038,59.448L194.989,30.011L333.038,-62.332L333.038,-429.845L-301.44,-492.425" style="fill:rgb(64,63,65);fill-rule:nonzero;"/>
        </g>
    </g>
</svg>
